<svg version="1.1" xmlns="http://www.w3.org/2000/svg" xmlns:xlink="http://www.w3.org/1999/xlink" width="34.08116" height="34.08116" viewBox="0,0,34.08116,34.08116"><g transform="translate(-222.95942,-162.95942)"><g data-paper-data="{&quot;isPaintingLayer&quot;:true}" fill-rule="nonzero" stroke="#000000" stroke-width="2.5" stroke-linejoin="miter" stroke-miterlimit="10" stroke-dasharray="" stroke-dashoffset="0" style="mix-blend-mode: normal"><path d="M224.20942,190.88143c0,-7.23913 0,-20.28237 0,-23.61952c0,-1.53341 1.97884,-3.05249 3.84792,-3.05249c3.82311,0 17.91983,0 24.41568,0c2.02989,0 3.31756,2.13664 3.31756,4.11404c0,3.6807 0,16.31239 0,23.08874c0,2.63028 -1.5189,4.37837 -3.05217,4.37837c-3.59936,0 -18.49116,0 -25.21185,0c-2.03208,0 -3.31714,-1.97917 -3.31714,-4.90915z" fill="#ff6666" stroke-linecap="butt"/><path d="M230.16393,172.20426l3.48306,6.56935" fill="none" stroke-linecap="round"/><path d="M250.1251,171.69755l-3.48306,6.56935" data-paper-data="{&quot;index&quot;:null}" fill="none" stroke-linecap="round"/><path d="M236.54996,186.90008c0,-1.90541 1.54464,-3.45004 3.45004,-3.45004c1.90541,0 3.45004,1.54464 3.45004,3.45004c0,1.90541 -1.54464,3.45004 -3.45004,3.45004c-1.90541,0 -3.45004,-1.54464 -3.45004,-3.45004z" fill="#000000" stroke-linecap="butt"/></g></g></svg>