<svg version="1.1" xmlns="http://www.w3.org/2000/svg" xmlns:xlink="http://www.w3.org/1999/xlink" width="29.00658" height="34.55255" viewBox="0,0,29.00658,34.55255"><g transform="translate(-305.49671,-162.72373)"><g data-paper-data="{&quot;isPaintingLayer&quot;:true}" fill-rule="nonzero" stroke="#335280" stroke-width="2" stroke-linecap="butt" stroke-linejoin="miter" stroke-miterlimit="10" stroke-dasharray="" stroke-dashoffset="0" style="mix-blend-mode: normal"><path d="M306.49671,190.73087c0,-5.96613 0,-14.98388 0,-17.84363c0,-1.73095 1.49573,-3.85865 2.77278,-3.85865c2.93169,0 14.74503,0.13144 20.72657,0.20024c2.11984,0.02437 3.50723,1.64199 3.50723,3.17615c0,2.88847 0,12.94888 0,19.04927c0,2.8402 -1.25485,4.82203 -2.5321,4.82203c-3.02082,0 -15.60957,0 -21.46058,0c-1.84018,0 -3.0139,-2.32933 -3.0139,-5.54542z" fill="#47a7d4"/><path d="M313.61005,187.83674v-24.11301l12.7799,0l0,24.11301z" fill="#b285b3"/><path d="M309.87253,182.65243c0,-5.59324 4.53422,-10.12747 10.12747,-10.12747c5.59324,0 10.12747,4.53422 10.12747,10.12747c0,5.59324 -4.53422,10.12747 -10.12747,10.12747c-5.59324,0 -10.12747,-4.53422 -10.12747,-10.12747z" fill="#b285b3"/></g></g></svg>